name C:\Users\Nicos\Desktop\Gil_twoSteps\Study2\ExperimentalData\IK_Splined\twoSteps_IK_BSplines_100_meshInts_study2_p02_s_01_lowIK_modROI.mot
datacolumns 38
datarows 10
range 0.65500000 0.66439602
endheader
                time	         pelvis_tilt	         pelvis_list	     pelvis_rotation	           pelvis_tx	           pelvis_ty	           pelvis_tz	       hip_flexion_r	     hip_adduction_r	      hip_rotation_r	        knee_angle_r	       ankle_angle_r	    subtalar_angle_r	         mtp_angle_r	       hip_flexion_l	     hip_adduction_l	      hip_rotation_l	        knee_angle_l	       ankle_angle_l	    subtalar_angle_l	         mtp_angle_l	    lumbar_extension	      lumbar_bending	     lumbar_rotation	          arm_flex_r	           arm_add_r	           arm_rot_r	        elbow_flex_r	           pro_sup_r	        wrist_flex_r	         wrist_dev_r	          arm_flex_l	           arm_add_l	           arm_rot_l	        elbow_flex_l	           pro_sup_l	        wrist_flex_l	         wrist_dev_l	
          0.65500000	        -17.54548752	          3.75483371	          9.31518290	          0.30817008	          0.89319060	          0.34005499	         30.45800852	         -9.41477455	        -15.86856652	       -111.20356366	        -14.95420648	        -31.61701780	         -8.97722800	         30.88866626	          6.10227794	         -0.16026141	        -50.40453101	         22.01139291	         -8.94183878	          6.06569396	        -27.94716403	         -9.07794412	         -2.18291968	        -29.65981415	        -10.38183795	        -16.00613014	         49.34330444	         77.11782104	        -27.11273847	         30.36638190	         -2.34921310	        -11.78496392	         -7.94861729	         69.08059899	         69.44865087	          4.67404610	         19.78771321	
          0.65567602	        -17.57440036	          3.69280297	          9.50339679	          0.31165789	          0.89300388	          0.33982798	         30.91575794	         -9.47228272	        -15.95304153	       -111.55323207	        -14.68783329	        -31.59343268	         -8.93408570	         30.64318801	          6.09121955	         -0.02582182	        -50.31608751	         22.05523823	         -8.92903183	          6.16777632	        -27.90533286	         -8.88433430	         -2.21024153	        -30.05505574	        -10.28765733	        -16.13517124	         48.90901802	         77.13392746	        -27.08514758	         30.47995445	         -1.84339287	        -11.66608507	         -7.76213995	         69.41612354	         69.36659388	          4.67792122	         19.75824578	
          0.65781198	        -17.66242808	          3.49241570	         10.10832935	          0.32266235	          0.89241950	          0.33910887	         32.36354886	         -9.66204585	        -16.22261153	       -112.63647810	        -13.85058827	        -31.51722754	         -8.79365442	         29.86967465	          6.04623569	          0.40861491	        -50.03557577	         22.17116104	         -8.87999533	          6.50056111	        -27.77318561	         -8.26054924	         -2.31104318	        -31.32504444	         -9.97314102	        -16.59040201	         47.63754501	         77.16335270	        -26.99279064	         30.82666018	         -0.25618979	        -11.28670036	         -7.17322973	         70.51071722	         69.08078353	          4.68751730	         19.67112365	
          0.65936000	        -17.71730251	          3.33539017	         10.57426800	          0.33059593	          0.89201090	          0.33858277	         33.41682550	         -9.82120810	        -16.42512871	       -113.36368642	        -13.25556839	        -31.45747421	         -8.68082299	         29.31470429	          5.98667968	          0.74940153	        -49.82941450	         22.19449675	         -8.82145276	          6.76924234	        -27.67747209	         -7.77610731	         -2.42294656	        -32.30231968	         -9.69972527	        -17.04783793	         46.98628103	         77.12707541	        -26.91195155	         31.04536154	          0.86465468	        -11.00160967	         -6.74717699	         71.39653199	         68.80240977	          4.68736642	         19.62403839	
          0.65936000	        -17.71730251	          3.33539017	         10.57426800	          0.33059593	          0.89201090	          0.33858277	         33.41682550	         -9.82120810	        -16.42512871	       -113.36368642	        -13.25556839	        -31.45747421	         -8.68082299	         29.31470429	          5.98667968	          0.74940153	        -49.82941450	         22.19449675	         -8.82145276	          6.76924234	        -27.67747209	         -7.77610731	         -2.42294656	        -32.30231968	         -9.69972527	        -17.04783793	         46.98628103	         77.12707541	        -26.91195155	         31.04536154	          0.86465468	        -11.00160967	         -6.74717699	         71.39653199	         68.80240977	          4.68736642	         19.62403839	
          0.66003602	        -17.74126622	          3.26681701	         10.77774372	          0.33406053	          0.89183247	          0.33835303	         33.87679213	         -9.89071437	        -16.51356811	       -113.68125879	        -12.99572281	        -31.43137989	         -8.63154943	         29.07234835	          5.96067153	          0.89822328	        -49.73938374	         22.20468747	         -8.79588717	          6.88657562	        -27.63567393	         -7.56455119	         -2.47181485	        -32.72909645	         -9.58032442	        -17.24760051	         46.70187361	         77.11123309	        -26.87664907	         31.14086857	          1.35412823	        -10.87711037	         -6.56111947	         71.78336790	         68.68084376	          4.68730053	         19.60347622	
          0.66217198	        -17.81209108	          3.04482197	         11.42810721	          0.34499416	          0.89127529	          0.33762389	         35.32970739	        -10.11726670	        -16.79268384	       -114.66182787	        -12.17832082	        -31.34680597	         -8.46977004	         28.30353971	          5.86726526	          1.38083552	        -49.44723761	         22.22240596	         -8.70961081	          7.26569932	        -27.50247147	         -6.88436552	         -2.64267346	        -34.09465317	         -9.18927726	        -17.92278709	         45.89763070	         77.07946288	        -26.75909885	         31.43846639	          2.88773254	        -10.48119953	         -5.97641518	         73.03960054	         68.27002053	          4.68437681	         19.54221063	
          0.66372000	        -17.85003632	          2.86934005	         11.91988016	          0.35288240	          0.89088955	          0.33708661	         36.38162877	        -10.30045517	        -16.99410493	       -115.31000940	        -11.59577630	        -31.27969165	         -8.33584038	         27.73796731	          5.76883229	          1.76453224	        -49.21447215	         22.19561853	         -8.63203131	          7.56345203	        -27.40282102	         -6.35923430	         -2.81153564	        -35.13117728	         -8.86812962	        -18.53259418	         45.57302645	         77.10647990	        -26.65746016	         31.64274906	          3.96381139	        -10.18730311	         -5.56130617	         74.04306960	         67.89913979	          4.67482599	         19.50794158	
          0.66372000	        -17.85003632	          2.86934005	         11.91988016	          0.35288240	          0.89088955	          0.33708661	         36.38162877	        -10.30045517	        -16.99410493	       -115.31000940	        -11.59577630	        -31.27969165	         -8.33584038	         27.73796731	          5.76883229	          1.76453224	        -49.21447215	         22.19561853	         -8.63203131	          7.56345203	        -27.40282102	         -6.35923430	         -2.81153564	        -35.13117728	         -8.86812962	        -18.53259418	         45.57302645	         77.10647990	        -26.65746016	         31.64274906	          3.96381139	        -10.18730311	         -5.56130617	         74.04306960	         67.89913979	          4.67482599	         19.50794158	
          0.66439602	        -17.86660704	          2.79270698	         12.13463775	          0.35632720	          0.89072110	          0.33685198	         36.84100355	        -10.38045370	        -17.08206566	       -115.59307072	        -11.34137871	        -31.25038278	         -8.27735320	         27.49098145	          5.72584654	          1.93209286	        -49.11282332	         22.18392044	         -8.59815229	          7.69348084	        -27.35930360	         -6.12990914	         -2.88527787	        -35.58382806	         -8.72788422	        -18.79889735	         45.43127155	         77.11827826	        -26.61307448	         31.73195944	          4.43373576	        -10.05895835	         -5.38002778	         74.48128523	         67.73717591	          4.67065514	         19.49297626	
